<?xml version="1.0" encoding="utf-8"?>
<!-- Generator: Adobe Illustrator 16.0.0, SVG Export Plug-In . SVG Version: 6.00 Build 0)  -->
<!DOCTYPE svg PUBLIC "-//W3C//DTD SVG 1.1//EN" "http://www.w3.org/Graphics/SVG/1.1/DTD/svg11.dtd">
<svg version="1.1" id="圖層_1" xmlns="http://www.w3.org/2000/svg" xmlns:xlink="http://www.w3.org/1999/xlink" x="0px" y="0px"
	 width="36.616px" height="45.191px" viewBox="0 0 36.616 45.191" style="enable-background:new 0 0 36.616 45.191;"
	 xml:space="preserve">
<g>
	<path style="fill-rule:evenodd;clip-rule:evenodd;fill:#FFFFFF;" d="M31.106,0c0.069,0.131,0.035,0.271,0.035,0.406
		c0.002,10.793,0,21.586,0.011,32.379c0.001,0.362-0.084,0.445-0.446,0.445c-7.616-0.013-15.235-0.011-22.854-0.008
		c-1.008,0-1.996,0.116-2.918,0.57c-1.443,0.711-2.189,1.884-2.305,3.475c-0.096,1.331,0.135,2.573,1.021,3.625
		c0.88,1.047,2.048,1.525,3.378,1.654c0.3,0.028,0.603,0.021,0.903,0.021c8.734,0.002,17.47-0.001,26.204,0.01
		c0.352,0,0.45-0.067,0.449-0.438c-0.011-11.733-0.007-23.468-0.018-35.201c0-0.367,0.067-0.506,0.46-0.47
		c0.448,0.04,0.903,0.018,1.354,0.006c0.185-0.006,0.252,0.054,0.228,0.232c-0.009,0.062-0.001,0.125-0.001,0.188
		c0,12.624-0.002,25.25,0.008,37.874c0,0.344-0.087,0.423-0.425,0.422c-9.55-0.01-19.1-0.002-28.65-0.013
		c-2.274-0.002-4.242-0.785-5.781-2.498c-1.122-1.248-1.737-2.741-1.741-4.408C-0.006,26.953-0.002,15.634,0.006,4.313
		c0.001-2.162,1.484-3.873,3.61-4.25C3.646,0.058,3.669,0.021,3.695,0C12.833,0,21.969,0,31.106,0z"/>
	<path style="fill-rule:evenodd;clip-rule:evenodd;fill:#FFFFFF;" d="M19.321,36.823c3.815,0,7.631,0.006,11.446-0.008
		c0.318-0.001,0.403,0.08,0.383,0.391c-0.028,0.462-0.015,0.928-0.004,1.392c0.005,0.189-0.045,0.287-0.25,0.257
		c-0.05-0.007-0.101,0-0.15,0c-7.556,0-15.111,0-22.667-0.001c-0.188,0-0.372-0.002-0.558-0.058
		c-0.577-0.172-0.866-0.564-0.814-1.137c0.038-0.422,0.455-0.779,0.98-0.829c0.161-0.015,0.326-0.007,0.489-0.007
		C11.891,36.823,15.607,36.823,19.321,36.823z"/>
</g>
</svg>
